<?xml version="1.0" encoding="utf-8" standalone="no"?>
<!DOCTYPE svg PUBLIC "-//W3C//DTD SVG 1.1//EN"
  "http://www.w3.org/Graphics/SVG/1.1/DTD/svg11.dtd">
<!-- Created with matplotlib (https://matplotlib.org/) -->
<svg height="345.6pt" version="1.1" viewBox="0 0 460.8 345.6" width="460.8pt" xmlns="http://www.w3.org/2000/svg" xmlns:xlink="http://www.w3.org/1999/xlink">
 <metadata>
  <rdf:RDF xmlns:cc="http://creativecommons.org/ns#" xmlns:dc="http://purl.org/dc/elements/1.1/" xmlns:rdf="http://www.w3.org/1999/02/22-rdf-syntax-ns#">
   <cc:Work>
    <dc:type rdf:resource="http://purl.org/dc/dcmitype/StillImage"/>
    <dc:date>2021-08-17T15:50:19.965628</dc:date>
    <dc:format>image/svg+xml</dc:format>
    <dc:creator>
     <cc:Agent>
      <dc:title>Matplotlib v3.3.0, https://matplotlib.org/</dc:title>
     </cc:Agent>
    </dc:creator>
   </cc:Work>
  </rdf:RDF>
 </metadata>
 <defs>
  <style type="text/css">*{stroke-linecap:butt;stroke-linejoin:round;}</style>
 </defs>
 <g id="figure_1">
  <g id="patch_1">
   <path d="M 0 345.6 
L 460.8 345.6 
L 460.8 0 
L 0 0 
z
" style="fill:#ffffff;"/>
  </g>
  <g id="axes_1">
   <g id="patch_2">
    <path d="M 57.6 307.584 
L 414.72 307.584 
L 414.72 41.472 
L 57.6 41.472 
z
" style="fill:#ffffff;"/>
   </g>
   <g id="matplotlib.axis_1">
    <g id="xtick_1">
     <g id="line2d_1">
      <defs>
       <path d="M 0 0 
L 0 3.5 
" id="m2889fadef0" style="stroke:#000000;stroke-width:0.8;"/>
      </defs>
      <g>
       <use style="stroke:#000000;stroke-width:0.8;" x="57.6" xlink:href="#m2889fadef0" y="307.584"/>
      </g>
     </g>
    </g>
    <g id="xtick_2">
     <g id="line2d_2">
      <g>
       <use style="stroke:#000000;stroke-width:0.8;" x="414.72" xlink:href="#m2889fadef0" y="307.584"/>
      </g>
     </g>
    </g>
    <g id="xtick_3">
     <g id="line2d_3">
      <defs>
       <path d="M 0 0 
L 0 2 
" id="m4bb7c8c365" style="stroke:#000000;stroke-width:0.6;"/>
      </defs>
      <g>
       <use style="stroke:#000000;stroke-width:0.6;" x="62.931637" xlink:href="#m4bb7c8c365" y="307.584"/>
      </g>
     </g>
    </g>
    <g id="xtick_4">
     <g id="line2d_4">
      <g>
       <use style="stroke:#000000;stroke-width:0.6;" x="74.890448" xlink:href="#m4bb7c8c365" y="307.584"/>
      </g>
     </g>
     <g id="text_1">
      <!--  -->
      <g transform="translate(74.890448 320.582437)scale(0.1 -0.1)"/>
      <!--  -->
      <g transform="translate(74.890448 331.78025)scale(0.1 -0.1)"/>
      <!-- May -->
      <g transform="translate(64.552948 342.978062)scale(0.1 -0.1)">
       <defs>
        <path d="M 9.8125 72.90625 
L 24.515625 72.90625 
L 43.109375 23.296875 
L 61.8125 72.90625 
L 76.515625 72.90625 
L 76.515625 0 
L 66.890625 0 
L 66.890625 64.015625 
L 48.09375 14.015625 
L 38.1875 14.015625 
L 19.390625 64.015625 
L 19.390625 0 
L 9.8125 0 
z
" id="DejaVuSans-77"/>
        <path d="M 34.28125 27.484375 
Q 23.390625 27.484375 19.1875 25 
Q 14.984375 22.515625 14.984375 16.5 
Q 14.984375 11.71875 18.140625 8.90625 
Q 21.296875 6.109375 26.703125 6.109375 
Q 34.1875 6.109375 38.703125 11.40625 
Q 43.21875 16.703125 43.21875 25.484375 
L 43.21875 27.484375 
z
M 52.203125 31.203125 
L 52.203125 0 
L 43.21875 0 
L 43.21875 8.296875 
Q 40.140625 3.328125 35.546875 0.953125 
Q 30.953125 -1.421875 24.3125 -1.421875 
Q 15.921875 -1.421875 10.953125 3.296875 
Q 6 8.015625 6 15.921875 
Q 6 25.140625 12.171875 29.828125 
Q 18.359375 34.515625 30.609375 34.515625 
L 43.21875 34.515625 
L 43.21875 35.40625 
Q 43.21875 41.609375 39.140625 45 
Q 35.0625 48.390625 27.6875 48.390625 
Q 23 48.390625 18.546875 47.265625 
Q 14.109375 46.140625 10.015625 43.890625 
L 10.015625 52.203125 
Q 14.9375 54.109375 19.578125 55.046875 
Q 24.21875 56 28.609375 56 
Q 40.484375 56 46.34375 49.84375 
Q 52.203125 43.703125 52.203125 31.203125 
z
" id="DejaVuSans-97"/>
        <path d="M 32.171875 -5.078125 
Q 28.375 -14.84375 24.75 -17.8125 
Q 21.140625 -20.796875 15.09375 -20.796875 
L 7.90625 -20.796875 
L 7.90625 -13.28125 
L 13.1875 -13.28125 
Q 16.890625 -13.28125 18.9375 -11.515625 
Q 21 -9.765625 23.484375 -3.21875 
L 25.09375 0.875 
L 2.984375 54.6875 
L 12.5 54.6875 
L 29.59375 11.921875 
L 46.6875 54.6875 
L 56.203125 54.6875 
z
" id="DejaVuSans-121"/>
       </defs>
       <use xlink:href="#DejaVuSans-77"/>
       <use x="86.279297" xlink:href="#DejaVuSans-97"/>
       <use x="147.558594" xlink:href="#DejaVuSans-121"/>
      </g>
      <!-- 2021 -->
      <g transform="translate(62.165448 354.175875)scale(0.1 -0.1)">
       <defs>
        <path d="M 19.1875 8.296875 
L 53.609375 8.296875 
L 53.609375 0 
L 7.328125 0 
L 7.328125 8.296875 
Q 12.9375 14.109375 22.625 23.890625 
Q 32.328125 33.6875 34.8125 36.53125 
Q 39.546875 41.84375 41.421875 45.53125 
Q 43.3125 49.21875 43.3125 52.78125 
Q 43.3125 58.59375 39.234375 62.25 
Q 35.15625 65.921875 28.609375 65.921875 
Q 23.96875 65.921875 18.8125 64.3125 
Q 13.671875 62.703125 7.8125 59.421875 
L 7.8125 69.390625 
Q 13.765625 71.78125 18.9375 73 
Q 24.125 74.21875 28.421875 74.21875 
Q 39.75 74.21875 46.484375 68.546875 
Q 53.21875 62.890625 53.21875 53.421875 
Q 53.21875 48.921875 51.53125 44.890625 
Q 49.859375 40.875 45.40625 35.40625 
Q 44.1875 33.984375 37.640625 27.21875 
Q 31.109375 20.453125 19.1875 8.296875 
z
" id="DejaVuSans-50"/>
        <path d="M 31.78125 66.40625 
Q 24.171875 66.40625 20.328125 58.90625 
Q 16.5 51.421875 16.5 36.375 
Q 16.5 21.390625 20.328125 13.890625 
Q 24.171875 6.390625 31.78125 6.390625 
Q 39.453125 6.390625 43.28125 13.890625 
Q 47.125 21.390625 47.125 36.375 
Q 47.125 51.421875 43.28125 58.90625 
Q 39.453125 66.40625 31.78125 66.40625 
z
M 31.78125 74.21875 
Q 44.046875 74.21875 50.515625 64.515625 
Q 56.984375 54.828125 56.984375 36.375 
Q 56.984375 17.96875 50.515625 8.265625 
Q 44.046875 -1.421875 31.78125 -1.421875 
Q 19.53125 -1.421875 13.0625 8.265625 
Q 6.59375 17.96875 6.59375 36.375 
Q 6.59375 54.828125 13.0625 64.515625 
Q 19.53125 74.21875 31.78125 74.21875 
z
" id="DejaVuSans-48"/>
        <path d="M 12.40625 8.296875 
L 28.515625 8.296875 
L 28.515625 63.921875 
L 10.984375 60.40625 
L 10.984375 69.390625 
L 28.421875 72.90625 
L 38.28125 72.90625 
L 38.28125 8.296875 
L 54.390625 8.296875 
L 54.390625 0 
L 12.40625 0 
z
" id="DejaVuSans-49"/>
       </defs>
       <use xlink:href="#DejaVuSans-50"/>
       <use x="63.623047" xlink:href="#DejaVuSans-48"/>
       <use x="127.246094" xlink:href="#DejaVuSans-50"/>
       <use x="190.869141" xlink:href="#DejaVuSans-49"/>
      </g>
     </g>
    </g>
    <g id="xtick_5">
     <g id="line2d_5">
      <g>
       <use style="stroke:#000000;stroke-width:0.6;" x="86.849259" xlink:href="#m4bb7c8c365" y="307.584"/>
      </g>
     </g>
    </g>
    <g id="xtick_6">
     <g id="line2d_6">
      <g>
       <use style="stroke:#000000;stroke-width:0.6;" x="98.80807" xlink:href="#m4bb7c8c365" y="307.584"/>
      </g>
     </g>
    </g>
    <g id="xtick_7">
     <g id="line2d_7">
      <g>
       <use style="stroke:#000000;stroke-width:0.6;" x="110.766882" xlink:href="#m4bb7c8c365" y="307.584"/>
      </g>
     </g>
    </g>
    <g id="xtick_8">
     <g id="line2d_8">
      <g>
       <use style="stroke:#000000;stroke-width:0.6;" x="122.725693" xlink:href="#m4bb7c8c365" y="307.584"/>
      </g>
     </g>
    </g>
    <g id="xtick_9">
     <g id="line2d_9">
      <g>
       <use style="stroke:#000000;stroke-width:0.6;" x="134.684504" xlink:href="#m4bb7c8c365" y="307.584"/>
      </g>
     </g>
    </g>
    <g id="xtick_10">
     <g id="line2d_10">
      <g>
       <use style="stroke:#000000;stroke-width:0.6;" x="146.643315" xlink:href="#m4bb7c8c365" y="307.584"/>
      </g>
     </g>
    </g>
    <g id="xtick_11">
     <g id="line2d_11">
      <g>
       <use style="stroke:#000000;stroke-width:0.6;" x="158.602126" xlink:href="#m4bb7c8c365" y="307.584"/>
      </g>
     </g>
     <g id="text_2">
      <!-- 10 -->
      <g transform="translate(152.239626 320.582437)scale(0.1 -0.1)">
       <use xlink:href="#DejaVuSans-49"/>
       <use x="63.623047" xlink:href="#DejaVuSans-48"/>
      </g>
     </g>
    </g>
    <g id="xtick_12">
     <g id="line2d_12">
      <g>
       <use style="stroke:#000000;stroke-width:0.6;" x="170.560938" xlink:href="#m4bb7c8c365" y="307.584"/>
      </g>
     </g>
    </g>
    <g id="xtick_13">
     <g id="line2d_13">
      <g>
       <use style="stroke:#000000;stroke-width:0.6;" x="182.519749" xlink:href="#m4bb7c8c365" y="307.584"/>
      </g>
     </g>
    </g>
    <g id="xtick_14">
     <g id="line2d_14">
      <g>
       <use style="stroke:#000000;stroke-width:0.6;" x="194.47856" xlink:href="#m4bb7c8c365" y="307.584"/>
      </g>
     </g>
    </g>
    <g id="xtick_15">
     <g id="line2d_15">
      <g>
       <use style="stroke:#000000;stroke-width:0.6;" x="206.437371" xlink:href="#m4bb7c8c365" y="307.584"/>
      </g>
     </g>
    </g>
    <g id="xtick_16">
     <g id="line2d_16">
      <g>
       <use style="stroke:#000000;stroke-width:0.6;" x="218.396183" xlink:href="#m4bb7c8c365" y="307.584"/>
      </g>
     </g>
    </g>
    <g id="xtick_17">
     <g id="line2d_17">
      <g>
       <use style="stroke:#000000;stroke-width:0.6;" x="230.354994" xlink:href="#m4bb7c8c365" y="307.584"/>
      </g>
     </g>
    </g>
    <g id="xtick_18">
     <g id="line2d_18">
      <g>
       <use style="stroke:#000000;stroke-width:0.6;" x="242.313805" xlink:href="#m4bb7c8c365" y="307.584"/>
      </g>
     </g>
     <g id="text_3">
      <!-- 17 -->
      <g transform="translate(235.951305 320.582437)scale(0.1 -0.1)">
       <defs>
        <path d="M 8.203125 72.90625 
L 55.078125 72.90625 
L 55.078125 68.703125 
L 28.609375 0 
L 18.3125 0 
L 43.21875 64.59375 
L 8.203125 64.59375 
z
" id="DejaVuSans-55"/>
       </defs>
       <use xlink:href="#DejaVuSans-49"/>
       <use x="63.623047" xlink:href="#DejaVuSans-55"/>
      </g>
     </g>
    </g>
    <g id="xtick_19">
     <g id="line2d_19">
      <g>
       <use style="stroke:#000000;stroke-width:0.6;" x="254.272616" xlink:href="#m4bb7c8c365" y="307.584"/>
      </g>
     </g>
    </g>
    <g id="xtick_20">
     <g id="line2d_20">
      <g>
       <use style="stroke:#000000;stroke-width:0.6;" x="266.231427" xlink:href="#m4bb7c8c365" y="307.584"/>
      </g>
     </g>
    </g>
    <g id="xtick_21">
     <g id="line2d_21">
      <g>
       <use style="stroke:#000000;stroke-width:0.6;" x="278.190239" xlink:href="#m4bb7c8c365" y="307.584"/>
      </g>
     </g>
    </g>
    <g id="xtick_22">
     <g id="line2d_22">
      <g>
       <use style="stroke:#000000;stroke-width:0.6;" x="290.14905" xlink:href="#m4bb7c8c365" y="307.584"/>
      </g>
     </g>
    </g>
    <g id="xtick_23">
     <g id="line2d_23">
      <g>
       <use style="stroke:#000000;stroke-width:0.6;" x="302.107861" xlink:href="#m4bb7c8c365" y="307.584"/>
      </g>
     </g>
    </g>
    <g id="xtick_24">
     <g id="line2d_24">
      <g>
       <use style="stroke:#000000;stroke-width:0.6;" x="314.066672" xlink:href="#m4bb7c8c365" y="307.584"/>
      </g>
     </g>
    </g>
    <g id="xtick_25">
     <g id="line2d_25">
      <g>
       <use style="stroke:#000000;stroke-width:0.6;" x="326.025483" xlink:href="#m4bb7c8c365" y="307.584"/>
      </g>
     </g>
     <g id="text_4">
      <!-- 24 -->
      <g transform="translate(319.662983 320.582437)scale(0.1 -0.1)">
       <defs>
        <path d="M 37.796875 64.3125 
L 12.890625 25.390625 
L 37.796875 25.390625 
z
M 35.203125 72.90625 
L 47.609375 72.90625 
L 47.609375 25.390625 
L 58.015625 25.390625 
L 58.015625 17.1875 
L 47.609375 17.1875 
L 47.609375 0 
L 37.796875 0 
L 37.796875 17.1875 
L 4.890625 17.1875 
L 4.890625 26.703125 
z
" id="DejaVuSans-52"/>
       </defs>
       <use xlink:href="#DejaVuSans-50"/>
       <use x="63.623047" xlink:href="#DejaVuSans-52"/>
      </g>
     </g>
    </g>
    <g id="xtick_26">
     <g id="line2d_26">
      <g>
       <use style="stroke:#000000;stroke-width:0.6;" x="337.984295" xlink:href="#m4bb7c8c365" y="307.584"/>
      </g>
     </g>
    </g>
    <g id="xtick_27">
     <g id="line2d_27">
      <g>
       <use style="stroke:#000000;stroke-width:0.6;" x="349.943106" xlink:href="#m4bb7c8c365" y="307.584"/>
      </g>
     </g>
    </g>
    <g id="xtick_28">
     <g id="line2d_28">
      <g>
       <use style="stroke:#000000;stroke-width:0.6;" x="361.901917" xlink:href="#m4bb7c8c365" y="307.584"/>
      </g>
     </g>
    </g>
    <g id="xtick_29">
     <g id="line2d_29">
      <g>
       <use style="stroke:#000000;stroke-width:0.6;" x="373.860728" xlink:href="#m4bb7c8c365" y="307.584"/>
      </g>
     </g>
    </g>
    <g id="xtick_30">
     <g id="line2d_30">
      <g>
       <use style="stroke:#000000;stroke-width:0.6;" x="385.81954" xlink:href="#m4bb7c8c365" y="307.584"/>
      </g>
     </g>
    </g>
    <g id="xtick_31">
     <g id="line2d_31">
      <g>
       <use style="stroke:#000000;stroke-width:0.6;" x="397.778351" xlink:href="#m4bb7c8c365" y="307.584"/>
      </g>
     </g>
    </g>
    <g id="xtick_32">
     <g id="line2d_32">
      <g>
       <use style="stroke:#000000;stroke-width:0.6;" x="409.737162" xlink:href="#m4bb7c8c365" y="307.584"/>
      </g>
     </g>
     <g id="text_5">
      <!-- 31 -->
      <g transform="translate(403.374662 320.582437)scale(0.1 -0.1)">
       <defs>
        <path d="M 40.578125 39.3125 
Q 47.65625 37.796875 51.625 33 
Q 55.609375 28.21875 55.609375 21.1875 
Q 55.609375 10.40625 48.1875 4.484375 
Q 40.765625 -1.421875 27.09375 -1.421875 
Q 22.515625 -1.421875 17.65625 -0.515625 
Q 12.796875 0.390625 7.625 2.203125 
L 7.625 11.71875 
Q 11.71875 9.328125 16.59375 8.109375 
Q 21.484375 6.890625 26.8125 6.890625 
Q 36.078125 6.890625 40.9375 10.546875 
Q 45.796875 14.203125 45.796875 21.1875 
Q 45.796875 27.640625 41.28125 31.265625 
Q 36.765625 34.90625 28.71875 34.90625 
L 20.21875 34.90625 
L 20.21875 43.015625 
L 29.109375 43.015625 
Q 36.375 43.015625 40.234375 45.921875 
Q 44.09375 48.828125 44.09375 54.296875 
Q 44.09375 59.90625 40.109375 62.90625 
Q 36.140625 65.921875 28.71875 65.921875 
Q 24.65625 65.921875 20.015625 65.03125 
Q 15.375 64.15625 9.8125 62.3125 
L 9.8125 71.09375 
Q 15.4375 72.65625 20.34375 73.4375 
Q 25.25 74.21875 29.59375 74.21875 
Q 40.828125 74.21875 47.359375 69.109375 
Q 53.90625 64.015625 53.90625 55.328125 
Q 53.90625 49.265625 50.4375 45.09375 
Q 46.96875 40.921875 40.578125 39.3125 
z
" id="DejaVuSans-51"/>
       </defs>
       <use xlink:href="#DejaVuSans-51"/>
       <use x="63.623047" xlink:href="#DejaVuSans-49"/>
      </g>
     </g>
    </g>
    <g id="text_6">
     <!-- Date -->
     <g transform="translate(224.209219 367.854)scale(0.1 -0.1)">
      <defs>
       <path d="M 19.671875 64.796875 
L 19.671875 8.109375 
L 31.59375 8.109375 
Q 46.6875 8.109375 53.6875 14.9375 
Q 60.6875 21.78125 60.6875 36.53125 
Q 60.6875 51.171875 53.6875 57.984375 
Q 46.6875 64.796875 31.59375 64.796875 
z
M 9.8125 72.90625 
L 30.078125 72.90625 
Q 51.265625 72.90625 61.171875 64.09375 
Q 71.09375 55.28125 71.09375 36.53125 
Q 71.09375 17.671875 61.125 8.828125 
Q 51.171875 0 30.078125 0 
L 9.8125 0 
z
" id="DejaVuSans-68"/>
       <path d="M 18.3125 70.21875 
L 18.3125 54.6875 
L 36.8125 54.6875 
L 36.8125 47.703125 
L 18.3125 47.703125 
L 18.3125 18.015625 
Q 18.3125 11.328125 20.140625 9.421875 
Q 21.96875 7.515625 27.59375 7.515625 
L 36.8125 7.515625 
L 36.8125 0 
L 27.59375 0 
Q 17.1875 0 13.234375 3.875 
Q 9.28125 7.765625 9.28125 18.015625 
L 9.28125 47.703125 
L 2.6875 47.703125 
L 2.6875 54.6875 
L 9.28125 54.6875 
L 9.28125 70.21875 
z
" id="DejaVuSans-116"/>
       <path d="M 56.203125 29.59375 
L 56.203125 25.203125 
L 14.890625 25.203125 
Q 15.484375 15.921875 20.484375 11.0625 
Q 25.484375 6.203125 34.421875 6.203125 
Q 39.59375 6.203125 44.453125 7.46875 
Q 49.3125 8.734375 54.109375 11.28125 
L 54.109375 2.78125 
Q 49.265625 0.734375 44.1875 -0.34375 
Q 39.109375 -1.421875 33.890625 -1.421875 
Q 20.796875 -1.421875 13.15625 6.1875 
Q 5.515625 13.8125 5.515625 26.8125 
Q 5.515625 40.234375 12.765625 48.109375 
Q 20.015625 56 32.328125 56 
Q 43.359375 56 49.78125 48.890625 
Q 56.203125 41.796875 56.203125 29.59375 
z
M 47.21875 32.234375 
Q 47.125 39.59375 43.09375 43.984375 
Q 39.0625 48.390625 32.421875 48.390625 
Q 24.90625 48.390625 20.390625 44.140625 
Q 15.875 39.890625 15.1875 32.171875 
z
" id="DejaVuSans-101"/>
      </defs>
      <use xlink:href="#DejaVuSans-68"/>
      <use x="77.001953" xlink:href="#DejaVuSans-97"/>
      <use x="138.28125" xlink:href="#DejaVuSans-116"/>
      <use x="177.490234" xlink:href="#DejaVuSans-101"/>
     </g>
    </g>
   </g>
   <g id="matplotlib.axis_2">
    <g id="ytick_1">
     <g id="line2d_33">
      <defs>
       <path d="M 0 0 
L -3.5 0 
" id="m0a59072dc8" style="stroke:#000000;stroke-width:0.8;"/>
      </defs>
      <g>
       <use style="stroke:#000000;stroke-width:0.8;" x="57.6" xlink:href="#m0a59072dc8" y="295.488"/>
      </g>
     </g>
     <g id="text_7">
      <!-- 0 -->
      <g transform="translate(44.2375 299.287219)scale(0.1 -0.1)">
       <use xlink:href="#DejaVuSans-48"/>
      </g>
     </g>
    </g>
    <g id="ytick_2">
     <g id="line2d_34">
      <g>
       <use style="stroke:#000000;stroke-width:0.8;" x="57.6" xlink:href="#m0a59072dc8" y="246.713806"/>
      </g>
     </g>
     <g id="text_8">
      <!-- 50 -->
      <g transform="translate(37.875 250.513025)scale(0.1 -0.1)">
       <defs>
        <path d="M 10.796875 72.90625 
L 49.515625 72.90625 
L 49.515625 64.59375 
L 19.828125 64.59375 
L 19.828125 46.734375 
Q 21.96875 47.46875 24.109375 47.828125 
Q 26.265625 48.1875 28.421875 48.1875 
Q 40.625 48.1875 47.75 41.5 
Q 54.890625 34.8125 54.890625 23.390625 
Q 54.890625 11.625 47.5625 5.09375 
Q 40.234375 -1.421875 26.90625 -1.421875 
Q 22.3125 -1.421875 17.546875 -0.640625 
Q 12.796875 0.140625 7.71875 1.703125 
L 7.71875 11.625 
Q 12.109375 9.234375 16.796875 8.0625 
Q 21.484375 6.890625 26.703125 6.890625 
Q 35.15625 6.890625 40.078125 11.328125 
Q 45.015625 15.765625 45.015625 23.390625 
Q 45.015625 31 40.078125 35.4375 
Q 35.15625 39.890625 26.703125 39.890625 
Q 22.75 39.890625 18.8125 39.015625 
Q 14.890625 38.140625 10.796875 36.28125 
z
" id="DejaVuSans-53"/>
       </defs>
       <use xlink:href="#DejaVuSans-53"/>
       <use x="63.623047" xlink:href="#DejaVuSans-48"/>
      </g>
     </g>
    </g>
    <g id="ytick_3">
     <g id="line2d_35">
      <g>
       <use style="stroke:#000000;stroke-width:0.8;" x="57.6" xlink:href="#m0a59072dc8" y="197.939613"/>
      </g>
     </g>
     <g id="text_9">
      <!-- 100 -->
      <g transform="translate(31.5125 201.738832)scale(0.1 -0.1)">
       <use xlink:href="#DejaVuSans-49"/>
       <use x="63.623047" xlink:href="#DejaVuSans-48"/>
       <use x="127.246094" xlink:href="#DejaVuSans-48"/>
      </g>
     </g>
    </g>
    <g id="ytick_4">
     <g id="line2d_36">
      <g>
       <use style="stroke:#000000;stroke-width:0.8;" x="57.6" xlink:href="#m0a59072dc8" y="149.165419"/>
      </g>
     </g>
     <g id="text_10">
      <!-- 150 -->
      <g transform="translate(31.5125 152.964638)scale(0.1 -0.1)">
       <use xlink:href="#DejaVuSans-49"/>
       <use x="63.623047" xlink:href="#DejaVuSans-53"/>
       <use x="127.246094" xlink:href="#DejaVuSans-48"/>
      </g>
     </g>
    </g>
    <g id="ytick_5">
     <g id="line2d_37">
      <g>
       <use style="stroke:#000000;stroke-width:0.8;" x="57.6" xlink:href="#m0a59072dc8" y="100.391226"/>
      </g>
     </g>
     <g id="text_11">
      <!-- 200 -->
      <g transform="translate(31.5125 104.190445)scale(0.1 -0.1)">
       <use xlink:href="#DejaVuSans-50"/>
       <use x="63.623047" xlink:href="#DejaVuSans-48"/>
       <use x="127.246094" xlink:href="#DejaVuSans-48"/>
      </g>
     </g>
    </g>
    <g id="ytick_6">
     <g id="line2d_38">
      <g>
       <use style="stroke:#000000;stroke-width:0.8;" x="57.6" xlink:href="#m0a59072dc8" y="51.617032"/>
      </g>
     </g>
     <g id="text_12">
      <!-- 250 -->
      <g transform="translate(31.5125 55.416251)scale(0.1 -0.1)">
       <use xlink:href="#DejaVuSans-50"/>
       <use x="63.623047" xlink:href="#DejaVuSans-53"/>
       <use x="127.246094" xlink:href="#DejaVuSans-48"/>
      </g>
     </g>
    </g>
   </g>
   <g id="line2d_39">
    <path clip-path="url(#p523ab3bf58)" d="M 57.6 243.787355 
L 57.716266 295.488 
L 60.67275 295.488 
L 60.681055 293.537032 
L 60.780712 295.488 
L 81.866421 295.488 
L 81.874726 207.694452 
L 81.974383 295.488 
L 82.838075 295.488 
L 82.862989 266.223484 
L 82.871293 222.32671 
L 82.896208 295.488 
L 82.962645 295.488 
L 83.477539 295.488 
L 83.485843 293.537032 
L 83.5855 295.488 
L 84.573763 295.488 
L 84.582068 245.738323 
L 84.681725 295.488 
L 84.731553 295.488 
L 84.839514 262.321548 
L 84.955781 295.488 
L 92.920017 295.488 
L 93.003064 238.909935 
L 93.027978 295.488 
L 93.185768 295.488 
L 93.194073 243.787355 
L 93.29373 295.488 
L 93.351863 295.488 
L 93.385082 246.713806 
L 93.459824 247.68929 
L 93.542871 244.762839 
L 93.57609 295.488 
L 93.850147 295.488 
L 93.875061 209.645419 
L 93.958108 295.488 
L 95.369912 295.488 
L 95.378217 255.493161 
L 95.477874 295.488 
L 95.527702 295.488 
L 95.536007 268.174452 
L 95.635663 295.488 
L 95.727015 295.488 
L 95.73532 251.591226 
L 95.834977 295.488 
L 97.288305 295.488 
L 97.387961 266.223484 
L 97.396266 275.002839 
L 97.512532 295.488 
L 97.520837 295.488 
L 97.529142 279.880258 
L 97.628799 295.488 
L 97.678627 295.488 
L 97.686932 293.537032 
L 97.786589 295.488 
L 104.363935 295.488 
L 104.372239 274.027355 
L 104.471896 295.488 
L 105.352198 295.488 
L 105.360502 258.419613 
L 105.460159 295.488 
L 105.609644 295.488 
L 105.626254 269.149935 
L 105.717606 295.488 
L 105.908614 295.488 
L 105.916919 260.370581 
L 106.016576 295.488 
L 106.024881 295.488 
L 106.033185 277.92929 
L 106.132842 295.488 
L 106.456727 295.488 
L 106.465031 263.297032 
L 106.564688 295.488 
L 121.471679 295.488 
L 121.496593 271.100903 
L 121.57964 295.488 
L 121.604554 295.488 
L 121.621164 191.111226 
L 121.712516 295.488 
L 129.012373 295.488 
L 129.103725 210.620903 
L 129.120335 266.223484 
L 129.236601 295.488 
L 129.344563 295.488 
L 129.352867 290.610581 
L 129.452524 295.488 
L 130.490615 295.488 
L 130.49892 242.811871 
L 130.598577 295.488 
L 130.615186 187.20929 
L 130.706538 295.488 
L 133.015253 295.488 
L 133.065082 225.253161 
L 133.131519 247.68929 
L 133.156434 213.547355 
L 133.25609 295.488 
L 140.497815 295.488 
L 140.514424 271.100903 
L 140.605776 295.488 
L 140.66391 295.488 
L 140.672214 278.904774 
L 140.771871 295.488 
L 140.879833 295.488 
L 140.888137 269.149935 
L 140.987794 285.733161 
L 141.10406 295.488 
L 141.868095 295.488 
L 141.8764 279.880258 
L 141.976057 295.488 
L 142.108933 295.488 
L 142.117237 253.542194 
L 142.216894 295.488 
L 163.950373 295.488 
L 163.958677 276.953806 
L 164.058334 295.488 
L 164.540008 295.488 
L 164.548313 53.568 
L 164.64797 295.488 
L 167.488188 295.488 
L 167.496492 241.836387 
L 167.596149 295.488 
L 169.082696 295.488 
L 169.091 290.610581 
L 169.190657 295.488 
L 169.755379 295.488 
L 169.763684 277.92929 
L 169.86334 295.488 
L 176.365944 295.488 
L 176.374249 268.174452 
L 176.473905 295.488 
L 176.739657 295.488 
L 176.847618 277.92929 
L 176.880837 215.498323 
L 176.963884 295.488 
L 177.154893 295.488 
L 177.171503 251.591226 
L 177.262855 295.488 
L 177.943843 295.488 
L 177.952147 193.062194 
L 178.051804 295.488 
L 178.217899 295.488 
L 178.276032 267.198968 
L 178.32586 295.488 
L 178.757706 295.488 
L 178.766011 279.880258 
L 178.865668 295.488 
L 179.970197 295.488 
L 180.02833 271.100903 
L 180.078158 295.488 
L 182.096208 295.488 
L 182.137731 254.517677 
L 182.204169 295.488 
L 187.353102 295.488 
L 187.369711 271.100903 
L 187.461063 295.488 
L 188.241708 295.488 
L 188.299841 253.542194 
L 188.349669 295.488 
L 190.392633 295.488 
L 190.400938 188.184774 
L 190.500594 295.488 
L 190.866003 295.488 
L 190.874307 283.782194 
L 190.973964 295.488 
L 192.211369 295.488 
L 192.219674 248.664774 
L 192.31933 295.488 
L 192.917271 295.488 
L 192.967099 201.841548 
L 193.025232 295.488 
L 193.199632 295.488 
L 193.207936 286.708645 
L 193.216241 126.72929 
L 193.266069 295.488 
L 193.315898 295.488 
L 193.324203 295.488 
L 193.332507 294.512516 
L 193.349117 295.488 
L 193.357422 202.817032 
L 193.457078 295.488 
L 193.473688 295.488 
L 193.481992 292.561548 
L 193.581649 295.488 
L 194.104847 295.488 
L 194.121457 265.248 
L 194.212809 295.488 
L 200.524404 295.488 
L 200.532708 278.904774 
L 200.632365 295.488 
L 200.831679 295.488 
L 200.839983 279.880258 
L 200.93964 295.488 
L 201.579104 295.488 
L 201.595714 262.321548 
L 201.687066 295.488 
L 202.085693 295.488 
L 202.093997 270.125419 
L 202.193654 295.488 
L 202.334835 295.488 
L 202.359749 273.051871 
L 202.442796 295.488 
L 202.575672 295.488 
L 202.583977 292.561548 
L 202.683633 295.488 
L 205.748079 295.488 
L 205.797907 211.596387 
L 205.85604 295.488 
L 206.146706 295.488 
L 206.262972 168.675097 
L 206.379238 295.488 
L 212.906756 295.488 
L 212.915061 224.277677 
L 213.014717 295.488 
L 214.725492 295.488 
L 214.758711 194.037677 
L 214.833453 295.488 
L 215.821716 295.488 
L 215.830021 264.272516 
L 215.929678 295.488 
L 216.17882 295.488 
L 216.195429 246.713806 
L 216.212039 295.488 
L 216.220343 176.478968 
L 216.32 295.488 
L 216.594056 295.488 
L 216.610666 206.718968 
L 216.702018 295.488 
L 217.341482 295.488 
L 217.349787 272.076387 
L 217.449443 295.488 
L 217.574014 295.488 
L 217.582319 224.277677 
L 217.681976 295.488 
L 224.815739 295.488 
L 224.824044 245.738323 
L 224.9237 295.488 
L 225.654517 295.488 
L 225.671126 280.855742 
L 225.762478 295.488 
L 226.31059 295.488 
L 226.318895 288.659613 
L 226.418552 295.488 
L 229.001323 295.488 
L 229.017932 288.659613 
L 229.109284 295.488 
L 235.794592 295.488 
L 235.811201 265.248 
L 235.902553 295.488 
L 237.613328 295.488 
L 237.621632 294.512516 
L 237.721289 295.488 
L 238.036869 295.488 
L 238.045174 271.100903 
L 238.14483 295.488 
L 238.194659 295.488 
L 238.202964 279.880258 
L 238.30262 295.488 
L 238.360753 295.488 
L 238.369058 292.561548 
L 238.468715 295.488 
L 250.751411 295.488 
L 250.759715 236.958968 
L 250.859372 295.488 
L 250.900896 295.488 
L 250.909201 230.130581 
L 251.008857 295.488 
L 251.831026 295.488 
L 251.847635 286.708645 
L 251.938987 295.488 
L 266.032114 295.488 
L 266.115161 214.522839 
L 266.140075 225.253161 
L 266.256342 295.488 
L 270.417011 295.488 
L 270.458535 238.909935 
L 270.524973 295.488 
L 271.720854 295.488 
L 271.729159 287.684129 
L 271.828815 295.488 
L 272.343709 295.488 
L 272.393537 201.841548 
L 272.45167 295.488 
L 272.476584 295.488 
L 272.526413 231.106065 
L 272.584546 295.488 
L 273.464847 295.488 
L 273.473152 236.958968 
L 273.572809 295.488 
L 277.98262 295.488 
L 277.990925 275.002839 
L 278.090582 295.488 
L 282.44226 295.488 
L 282.467175 271.100903 
L 282.550222 295.488 
L 282.575136 295.488 
L 282.583441 141.361548 
L 282.683098 295.488 
L 283.006982 295.488 
L 283.031896 223.302194 
L 283.114943 295.488 
L 283.206296 249.640258 
L 283.222905 295.488 
L 283.23121 295.488 
L 283.239514 201.841548 
L 283.339171 295.488 
L 283.347476 295.488 
L 283.355781 233.057032 
L 283.455437 295.488 
L 283.463742 295.488 
L 283.505266 245.738323 
L 283.571704 295.488 
L 284.078292 295.488 
L 284.128121 219.400258 
L 284.186254 295.488 
L 287.358661 295.488 
L 287.366965 218.424774 
L 287.466622 295.488 
L 297.36586 295.488 
L 297.38247 221.351226 
L 297.473822 295.488 
L 298.071762 295.488 
L 298.080067 266.223484 
L 298.179724 295.488 
L 298.229552 295.488 
L 298.237857 271.100903 
L 298.337514 295.488 
L 300.048288 295.488 
L 300.056593 270.125419 
L 300.156249 295.488 
L 300.189468 295.488 
L 300.197773 172.577032 
L 300.29743 295.488 
L 306.260226 295.488 
L 306.276835 267.198968 
L 306.368188 295.488 
L 306.434625 295.488 
L 306.44293 191.111226 
L 306.542587 295.488 
L 307.190356 295.488 
L 307.206965 248.664774 
L 307.298317 295.488 
L 307.456107 295.488 
L 307.472717 178.429935 
L 307.564069 295.488 
L 307.912867 295.488 
L 307.937781 242.811871 
L 308.020829 295.488 
L 308.436065 295.488 
L 308.44437 263.297032 
L 308.544027 295.488 
L 309.939221 295.488 
L 309.947526 205.743484 
L 310.047183 295.488 
L 311.21815 295.488 
L 311.226455 232.081548 
L 311.326111 295.488 
L 311.882528 295.488 
L 311.890833 268.174452 
L 311.99049 295.488 
L 313.784311 295.488 
L 313.792616 218.424774 
L 313.892273 295.488 
L 318.243951 295.488 
L 318.252256 293.537032 
L 318.351913 295.488 
L 319.198995 295.488 
L 319.315262 253.542194 
L 319.373395 222.32671 
L 319.431528 295.488 
L 319.82185 295.488 
L 319.863374 255.493161 
L 319.929812 295.488 
L 321.748548 295.488 
L 321.756852 233.057032 
L 321.856509 295.488 
L 322.29666 295.488 
L 322.313269 263.297032 
L 322.404621 295.488 
L 323.583893 295.488 
L 323.592198 293.537032 
L 323.691854 295.488 
L 324.256576 295.488 
L 324.264881 250.615742 
L 324.364537 295.488 
L 325.493981 295.488 
L 325.502285 275.002839 
L 325.601942 295.488 
L 330.460209 295.488 
L 330.468514 275.978323 
L 330.568171 295.488 
L 331.083064 295.488 
L 331.091369 294.512516 
L 331.191026 295.488 
L 331.290682 295.488 
L 331.298987 265.248 
L 331.398644 295.488 
L 331.930147 295.488 
L 331.938451 226.228645 
L 332.038108 295.488 
L 332.162679 295.488 
L 332.170984 166.724129 
L 332.27064 295.488 
L 342.726296 295.488 
L 342.759514 198.915097 
L 342.834257 295.488 
L 342.867476 295.488 
L 342.875781 255.493161 
L 342.975437 295.488 
L 343.091704 295.488 
L 343.100008 238.909935 
L 343.199665 295.488 
L 344.42046 295.488 
L 344.428765 286.708645 
L 344.528422 295.488 
L 344.686212 295.488 
L 344.694517 224.277677 
L 344.794173 295.488 
L 347.584563 295.488 
L 347.592867 256.468645 
L 347.692524 295.488 
L 349.677355 295.488 
L 349.685659 203.792516 
L 349.785316 295.488 
L 355.366095 295.488 
L 355.382704 231.106065 
L 355.474056 295.488 
L 355.532189 295.488 
L 355.540494 276.953806 
L 355.640151 295.488 
L 356.470624 295.488 
L 356.478928 213.547355 
L 356.578585 295.488 
L 356.927384 295.488 
L 356.935689 255.493161 
L 357.035345 295.488 
L 357.400753 295.488 
L 357.442277 180.380903 
L 357.508715 295.488 
L 360.141314 295.488 
L 360.149619 275.002839 
L 360.249276 295.488 
L 367.972675 295.488 
L 367.980979 276.953806 
L 368.080636 295.488 
L 368.088941 288.659613 
L 368.188598 295.488 
L 390.603064 295.488 
L 390.611369 287.684129 
L 390.711026 295.488 
L 392.172658 295.488 
L 392.180963 220.375742 
L 392.28062 295.488 
L 393.983089 295.488 
L 393.991394 214.522839 
L 394.091051 295.488 
L 395.668949 295.488 
L 395.776911 213.547355 
L 395.785216 250.615742 
L 395.901482 295.488 
L 414.279849 295.488 
L 414.288154 247.68929 
L 414.387811 295.488 
L 414.711695 295.488 
L 414.72 293.537032 
L 414.72 293.537032 
" style="fill:none;stroke:#1f77b4;stroke-linecap:square;stroke-width:1.5;"/>
   </g>
   <g id="patch_3">
    <path d="M 57.6 307.584 
L 57.6 41.472 
" style="fill:none;stroke:#000000;stroke-linecap:square;stroke-linejoin:miter;stroke-width:0.8;"/>
   </g>
   <g id="patch_4">
    <path d="M 414.72 307.584 
L 414.72 41.472 
" style="fill:none;stroke:#000000;stroke-linecap:square;stroke-linejoin:miter;stroke-width:0.8;"/>
   </g>
   <g id="patch_5">
    <path d="M 57.6 307.584 
L 414.72 307.584 
" style="fill:none;stroke:#000000;stroke-linecap:square;stroke-linejoin:miter;stroke-width:0.8;"/>
   </g>
   <g id="patch_6">
    <path d="M 57.6 41.472 
L 414.72 41.472 
" style="fill:none;stroke:#000000;stroke-linecap:square;stroke-linejoin:miter;stroke-width:0.8;"/>
   </g>
   <g id="legend_1">
    <g id="patch_7">
     <path d="M 321.140313 64.150125 
L 407.72 64.150125 
Q 409.72 64.150125 409.72 62.150125 
L 409.72 48.472 
Q 409.72 46.472 407.72 46.472 
L 321.140313 46.472 
Q 319.140313 46.472 319.140313 48.472 
L 319.140313 62.150125 
Q 319.140313 64.150125 321.140313 64.150125 
z
" style="fill:#ffffff;opacity:0.8;stroke:#cccccc;stroke-linejoin:miter;"/>
    </g>
    <g id="line2d_40">
     <path d="M 323.140313 54.570438 
L 343.140313 54.570438 
" style="fill:none;stroke:#1f77b4;stroke-linecap:square;stroke-width:1.5;"/>
    </g>
    <g id="line2d_41"/>
    <g id="text_13">
     <!-- Characters -->
     <g transform="translate(351.140313 58.070438)scale(0.1 -0.1)">
      <defs>
       <path d="M 64.40625 67.28125 
L 64.40625 56.890625 
Q 59.421875 61.53125 53.78125 63.8125 
Q 48.140625 66.109375 41.796875 66.109375 
Q 29.296875 66.109375 22.65625 58.46875 
Q 16.015625 50.828125 16.015625 36.375 
Q 16.015625 21.96875 22.65625 14.328125 
Q 29.296875 6.6875 41.796875 6.6875 
Q 48.140625 6.6875 53.78125 8.984375 
Q 59.421875 11.28125 64.40625 15.921875 
L 64.40625 5.609375 
Q 59.234375 2.09375 53.4375 0.328125 
Q 47.65625 -1.421875 41.21875 -1.421875 
Q 24.65625 -1.421875 15.125 8.703125 
Q 5.609375 18.84375 5.609375 36.375 
Q 5.609375 53.953125 15.125 64.078125 
Q 24.65625 74.21875 41.21875 74.21875 
Q 47.75 74.21875 53.53125 72.484375 
Q 59.328125 70.75 64.40625 67.28125 
z
" id="DejaVuSans-67"/>
       <path d="M 54.890625 33.015625 
L 54.890625 0 
L 45.90625 0 
L 45.90625 32.71875 
Q 45.90625 40.484375 42.875 44.328125 
Q 39.84375 48.1875 33.796875 48.1875 
Q 26.515625 48.1875 22.3125 43.546875 
Q 18.109375 38.921875 18.109375 30.90625 
L 18.109375 0 
L 9.078125 0 
L 9.078125 75.984375 
L 18.109375 75.984375 
L 18.109375 46.1875 
Q 21.34375 51.125 25.703125 53.5625 
Q 30.078125 56 35.796875 56 
Q 45.21875 56 50.046875 50.171875 
Q 54.890625 44.34375 54.890625 33.015625 
z
" id="DejaVuSans-104"/>
       <path d="M 41.109375 46.296875 
Q 39.59375 47.171875 37.8125 47.578125 
Q 36.03125 48 33.890625 48 
Q 26.265625 48 22.1875 43.046875 
Q 18.109375 38.09375 18.109375 28.8125 
L 18.109375 0 
L 9.078125 0 
L 9.078125 54.6875 
L 18.109375 54.6875 
L 18.109375 46.1875 
Q 20.953125 51.171875 25.484375 53.578125 
Q 30.03125 56 36.53125 56 
Q 37.453125 56 38.578125 55.875 
Q 39.703125 55.765625 41.0625 55.515625 
z
" id="DejaVuSans-114"/>
       <path d="M 48.78125 52.59375 
L 48.78125 44.1875 
Q 44.96875 46.296875 41.140625 47.34375 
Q 37.3125 48.390625 33.40625 48.390625 
Q 24.65625 48.390625 19.8125 42.84375 
Q 14.984375 37.3125 14.984375 27.296875 
Q 14.984375 17.28125 19.8125 11.734375 
Q 24.65625 6.203125 33.40625 6.203125 
Q 37.3125 6.203125 41.140625 7.25 
Q 44.96875 8.296875 48.78125 10.40625 
L 48.78125 2.09375 
Q 45.015625 0.34375 40.984375 -0.53125 
Q 36.96875 -1.421875 32.421875 -1.421875 
Q 20.0625 -1.421875 12.78125 6.34375 
Q 5.515625 14.109375 5.515625 27.296875 
Q 5.515625 40.671875 12.859375 48.328125 
Q 20.21875 56 33.015625 56 
Q 37.15625 56 41.109375 55.140625 
Q 45.0625 54.296875 48.78125 52.59375 
z
" id="DejaVuSans-99"/>
       <path d="M 44.28125 53.078125 
L 44.28125 44.578125 
Q 40.484375 46.53125 36.375 47.5 
Q 32.28125 48.484375 27.875 48.484375 
Q 21.1875 48.484375 17.84375 46.4375 
Q 14.5 44.390625 14.5 40.28125 
Q 14.5 37.15625 16.890625 35.375 
Q 19.28125 33.59375 26.515625 31.984375 
L 29.59375 31.296875 
Q 39.15625 29.25 43.1875 25.515625 
Q 47.21875 21.78125 47.21875 15.09375 
Q 47.21875 7.46875 41.1875 3.015625 
Q 35.15625 -1.421875 24.609375 -1.421875 
Q 20.21875 -1.421875 15.453125 -0.5625 
Q 10.6875 0.296875 5.421875 2 
L 5.421875 11.28125 
Q 10.40625 8.6875 15.234375 7.390625 
Q 20.0625 6.109375 24.8125 6.109375 
Q 31.15625 6.109375 34.5625 8.28125 
Q 37.984375 10.453125 37.984375 14.40625 
Q 37.984375 18.0625 35.515625 20.015625 
Q 33.0625 21.96875 24.703125 23.78125 
L 21.578125 24.515625 
Q 13.234375 26.265625 9.515625 29.90625 
Q 5.8125 33.546875 5.8125 39.890625 
Q 5.8125 47.609375 11.28125 51.796875 
Q 16.75 56 26.8125 56 
Q 31.78125 56 36.171875 55.265625 
Q 40.578125 54.546875 44.28125 53.078125 
z
" id="DejaVuSans-115"/>
      </defs>
      <use xlink:href="#DejaVuSans-67"/>
      <use x="69.824219" xlink:href="#DejaVuSans-104"/>
      <use x="133.203125" xlink:href="#DejaVuSans-97"/>
      <use x="194.482422" xlink:href="#DejaVuSans-114"/>
      <use x="235.595703" xlink:href="#DejaVuSans-97"/>
      <use x="296.875" xlink:href="#DejaVuSans-99"/>
      <use x="351.855469" xlink:href="#DejaVuSans-116"/>
      <use x="391.064453" xlink:href="#DejaVuSans-101"/>
      <use x="452.587891" xlink:href="#DejaVuSans-114"/>
      <use x="493.701172" xlink:href="#DejaVuSans-115"/>
     </g>
    </g>
   </g>
  </g>
 </g>
 <defs>
  <clipPath id="p523ab3bf58">
   <rect height="266.112" width="357.12" x="57.6" y="41.472"/>
  </clipPath>
 </defs>
</svg>
