<?xml version="1.0" encoding="utf-8" standalone="no"?>
<!DOCTYPE svg PUBLIC "-//W3C//DTD SVG 1.1//EN"
  "http://www.w3.org/Graphics/SVG/1.1/DTD/svg11.dtd">
<!-- Created with matplotlib (https://matplotlib.org/) -->
<svg height="345.6pt" version="1.1" viewBox="0 0 460.8 345.6" width="460.8pt" xmlns="http://www.w3.org/2000/svg" xmlns:xlink="http://www.w3.org/1999/xlink">
 <metadata>
  <rdf:RDF xmlns:cc="http://creativecommons.org/ns#" xmlns:dc="http://purl.org/dc/elements/1.1/" xmlns:rdf="http://www.w3.org/1999/02/22-rdf-syntax-ns#">
   <cc:Work>
    <dc:type rdf:resource="http://purl.org/dc/dcmitype/StillImage"/>
    <dc:date>2021-08-17T15:50:05.302524</dc:date>
    <dc:format>image/svg+xml</dc:format>
    <dc:creator>
     <cc:Agent>
      <dc:title>Matplotlib v3.3.0, https://matplotlib.org/</dc:title>
     </cc:Agent>
    </dc:creator>
   </cc:Work>
  </rdf:RDF>
 </metadata>
 <defs>
  <style type="text/css">*{stroke-linecap:butt;stroke-linejoin:round;}</style>
 </defs>
 <g id="figure_1">
  <g id="patch_1">
   <path d="M 0 345.6 
L 460.8 345.6 
L 460.8 0 
L 0 0 
z
" style="fill:#ffffff;"/>
  </g>
  <g id="axes_1">
   <g id="patch_2">
    <path d="M 57.6 307.584 
L 414.72 307.584 
L 414.72 41.472 
L 57.6 41.472 
z
" style="fill:#ffffff;"/>
   </g>
   <g id="matplotlib.axis_1">
    <g id="xtick_1">
     <g id="line2d_1">
      <defs>
       <path d="M 0 0 
L 0 3.5 
" id="m4237d869e3" style="stroke:#000000;stroke-width:0.8;"/>
      </defs>
      <g>
       <use style="stroke:#000000;stroke-width:0.8;" x="57.6" xlink:href="#m4237d869e3" y="307.584"/>
      </g>
     </g>
    </g>
    <g id="xtick_2">
     <g id="line2d_2">
      <g>
       <use style="stroke:#000000;stroke-width:0.8;" x="414.72" xlink:href="#m4237d869e3" y="307.584"/>
      </g>
     </g>
    </g>
    <g id="xtick_3">
     <g id="line2d_3">
      <defs>
       <path d="M 0 0 
L 0 2 
" id="ma2786e4ca3" style="stroke:#000000;stroke-width:0.6;"/>
      </defs>
      <g>
       <use style="stroke:#000000;stroke-width:0.6;" x="60.111451" xlink:href="#ma2786e4ca3" y="307.584"/>
      </g>
     </g>
    </g>
    <g id="xtick_4">
     <g id="line2d_4">
      <g>
       <use style="stroke:#000000;stroke-width:0.6;" x="72.166417" xlink:href="#ma2786e4ca3" y="307.584"/>
      </g>
     </g>
     <g id="text_1">
      <!--  -->
      <g transform="translate(72.166417 320.582437)scale(0.1 -0.1)"/>
      <!--  -->
      <g transform="translate(72.166417 331.78025)scale(0.1 -0.1)"/>
      <!-- May -->
      <g transform="translate(61.828917 342.978062)scale(0.1 -0.1)">
       <defs>
        <path d="M 9.8125 72.90625 
L 24.515625 72.90625 
L 43.109375 23.296875 
L 61.8125 72.90625 
L 76.515625 72.90625 
L 76.515625 0 
L 66.890625 0 
L 66.890625 64.015625 
L 48.09375 14.015625 
L 38.1875 14.015625 
L 19.390625 64.015625 
L 19.390625 0 
L 9.8125 0 
z
" id="DejaVuSans-77"/>
        <path d="M 34.28125 27.484375 
Q 23.390625 27.484375 19.1875 25 
Q 14.984375 22.515625 14.984375 16.5 
Q 14.984375 11.71875 18.140625 8.90625 
Q 21.296875 6.109375 26.703125 6.109375 
Q 34.1875 6.109375 38.703125 11.40625 
Q 43.21875 16.703125 43.21875 25.484375 
L 43.21875 27.484375 
z
M 52.203125 31.203125 
L 52.203125 0 
L 43.21875 0 
L 43.21875 8.296875 
Q 40.140625 3.328125 35.546875 0.953125 
Q 30.953125 -1.421875 24.3125 -1.421875 
Q 15.921875 -1.421875 10.953125 3.296875 
Q 6 8.015625 6 15.921875 
Q 6 25.140625 12.171875 29.828125 
Q 18.359375 34.515625 30.609375 34.515625 
L 43.21875 34.515625 
L 43.21875 35.40625 
Q 43.21875 41.609375 39.140625 45 
Q 35.0625 48.390625 27.6875 48.390625 
Q 23 48.390625 18.546875 47.265625 
Q 14.109375 46.140625 10.015625 43.890625 
L 10.015625 52.203125 
Q 14.9375 54.109375 19.578125 55.046875 
Q 24.21875 56 28.609375 56 
Q 40.484375 56 46.34375 49.84375 
Q 52.203125 43.703125 52.203125 31.203125 
z
" id="DejaVuSans-97"/>
        <path d="M 32.171875 -5.078125 
Q 28.375 -14.84375 24.75 -17.8125 
Q 21.140625 -20.796875 15.09375 -20.796875 
L 7.90625 -20.796875 
L 7.90625 -13.28125 
L 13.1875 -13.28125 
Q 16.890625 -13.28125 18.9375 -11.515625 
Q 21 -9.765625 23.484375 -3.21875 
L 25.09375 0.875 
L 2.984375 54.6875 
L 12.5 54.6875 
L 29.59375 11.921875 
L 46.6875 54.6875 
L 56.203125 54.6875 
z
" id="DejaVuSans-121"/>
       </defs>
       <use xlink:href="#DejaVuSans-77"/>
       <use x="86.279297" xlink:href="#DejaVuSans-97"/>
       <use x="147.558594" xlink:href="#DejaVuSans-121"/>
      </g>
      <!-- 2021 -->
      <g transform="translate(59.441417 354.175875)scale(0.1 -0.1)">
       <defs>
        <path d="M 19.1875 8.296875 
L 53.609375 8.296875 
L 53.609375 0 
L 7.328125 0 
L 7.328125 8.296875 
Q 12.9375 14.109375 22.625 23.890625 
Q 32.328125 33.6875 34.8125 36.53125 
Q 39.546875 41.84375 41.421875 45.53125 
Q 43.3125 49.21875 43.3125 52.78125 
Q 43.3125 58.59375 39.234375 62.25 
Q 35.15625 65.921875 28.609375 65.921875 
Q 23.96875 65.921875 18.8125 64.3125 
Q 13.671875 62.703125 7.8125 59.421875 
L 7.8125 69.390625 
Q 13.765625 71.78125 18.9375 73 
Q 24.125 74.21875 28.421875 74.21875 
Q 39.75 74.21875 46.484375 68.546875 
Q 53.21875 62.890625 53.21875 53.421875 
Q 53.21875 48.921875 51.53125 44.890625 
Q 49.859375 40.875 45.40625 35.40625 
Q 44.1875 33.984375 37.640625 27.21875 
Q 31.109375 20.453125 19.1875 8.296875 
z
" id="DejaVuSans-50"/>
        <path d="M 31.78125 66.40625 
Q 24.171875 66.40625 20.328125 58.90625 
Q 16.5 51.421875 16.5 36.375 
Q 16.5 21.390625 20.328125 13.890625 
Q 24.171875 6.390625 31.78125 6.390625 
Q 39.453125 6.390625 43.28125 13.890625 
Q 47.125 21.390625 47.125 36.375 
Q 47.125 51.421875 43.28125 58.90625 
Q 39.453125 66.40625 31.78125 66.40625 
z
M 31.78125 74.21875 
Q 44.046875 74.21875 50.515625 64.515625 
Q 56.984375 54.828125 56.984375 36.375 
Q 56.984375 17.96875 50.515625 8.265625 
Q 44.046875 -1.421875 31.78125 -1.421875 
Q 19.53125 -1.421875 13.0625 8.265625 
Q 6.59375 17.96875 6.59375 36.375 
Q 6.59375 54.828125 13.0625 64.515625 
Q 19.53125 74.21875 31.78125 74.21875 
z
" id="DejaVuSans-48"/>
        <path d="M 12.40625 8.296875 
L 28.515625 8.296875 
L 28.515625 63.921875 
L 10.984375 60.40625 
L 10.984375 69.390625 
L 28.421875 72.90625 
L 38.28125 72.90625 
L 38.28125 8.296875 
L 54.390625 8.296875 
L 54.390625 0 
L 12.40625 0 
z
" id="DejaVuSans-49"/>
       </defs>
       <use xlink:href="#DejaVuSans-50"/>
       <use x="63.623047" xlink:href="#DejaVuSans-48"/>
       <use x="127.246094" xlink:href="#DejaVuSans-50"/>
       <use x="190.869141" xlink:href="#DejaVuSans-49"/>
      </g>
     </g>
    </g>
    <g id="xtick_5">
     <g id="line2d_5">
      <g>
       <use style="stroke:#000000;stroke-width:0.6;" x="84.221384" xlink:href="#ma2786e4ca3" y="307.584"/>
      </g>
     </g>
    </g>
    <g id="xtick_6">
     <g id="line2d_6">
      <g>
       <use style="stroke:#000000;stroke-width:0.6;" x="96.27635" xlink:href="#ma2786e4ca3" y="307.584"/>
      </g>
     </g>
    </g>
    <g id="xtick_7">
     <g id="line2d_7">
      <g>
       <use style="stroke:#000000;stroke-width:0.6;" x="108.331316" xlink:href="#ma2786e4ca3" y="307.584"/>
      </g>
     </g>
    </g>
    <g id="xtick_8">
     <g id="line2d_8">
      <g>
       <use style="stroke:#000000;stroke-width:0.6;" x="120.386282" xlink:href="#ma2786e4ca3" y="307.584"/>
      </g>
     </g>
    </g>
    <g id="xtick_9">
     <g id="line2d_9">
      <g>
       <use style="stroke:#000000;stroke-width:0.6;" x="132.441248" xlink:href="#ma2786e4ca3" y="307.584"/>
      </g>
     </g>
    </g>
    <g id="xtick_10">
     <g id="line2d_10">
      <g>
       <use style="stroke:#000000;stroke-width:0.6;" x="144.496214" xlink:href="#ma2786e4ca3" y="307.584"/>
      </g>
     </g>
    </g>
    <g id="xtick_11">
     <g id="line2d_11">
      <g>
       <use style="stroke:#000000;stroke-width:0.6;" x="156.55118" xlink:href="#ma2786e4ca3" y="307.584"/>
      </g>
     </g>
     <g id="text_2">
      <!-- 10 -->
      <g transform="translate(150.18868 320.582437)scale(0.1 -0.1)">
       <use xlink:href="#DejaVuSans-49"/>
       <use x="63.623047" xlink:href="#DejaVuSans-48"/>
      </g>
     </g>
    </g>
    <g id="xtick_12">
     <g id="line2d_12">
      <g>
       <use style="stroke:#000000;stroke-width:0.6;" x="168.606146" xlink:href="#ma2786e4ca3" y="307.584"/>
      </g>
     </g>
    </g>
    <g id="xtick_13">
     <g id="line2d_13">
      <g>
       <use style="stroke:#000000;stroke-width:0.6;" x="180.661113" xlink:href="#ma2786e4ca3" y="307.584"/>
      </g>
     </g>
    </g>
    <g id="xtick_14">
     <g id="line2d_14">
      <g>
       <use style="stroke:#000000;stroke-width:0.6;" x="192.716079" xlink:href="#ma2786e4ca3" y="307.584"/>
      </g>
     </g>
    </g>
    <g id="xtick_15">
     <g id="line2d_15">
      <g>
       <use style="stroke:#000000;stroke-width:0.6;" x="204.771045" xlink:href="#ma2786e4ca3" y="307.584"/>
      </g>
     </g>
    </g>
    <g id="xtick_16">
     <g id="line2d_16">
      <g>
       <use style="stroke:#000000;stroke-width:0.6;" x="216.826011" xlink:href="#ma2786e4ca3" y="307.584"/>
      </g>
     </g>
    </g>
    <g id="xtick_17">
     <g id="line2d_17">
      <g>
       <use style="stroke:#000000;stroke-width:0.6;" x="228.880977" xlink:href="#ma2786e4ca3" y="307.584"/>
      </g>
     </g>
    </g>
    <g id="xtick_18">
     <g id="line2d_18">
      <g>
       <use style="stroke:#000000;stroke-width:0.6;" x="240.935943" xlink:href="#ma2786e4ca3" y="307.584"/>
      </g>
     </g>
     <g id="text_3">
      <!-- 17 -->
      <g transform="translate(234.573443 320.582437)scale(0.1 -0.1)">
       <defs>
        <path d="M 8.203125 72.90625 
L 55.078125 72.90625 
L 55.078125 68.703125 
L 28.609375 0 
L 18.3125 0 
L 43.21875 64.59375 
L 8.203125 64.59375 
z
" id="DejaVuSans-55"/>
       </defs>
       <use xlink:href="#DejaVuSans-49"/>
       <use x="63.623047" xlink:href="#DejaVuSans-55"/>
      </g>
     </g>
    </g>
    <g id="xtick_19">
     <g id="line2d_19">
      <g>
       <use style="stroke:#000000;stroke-width:0.6;" x="252.990909" xlink:href="#ma2786e4ca3" y="307.584"/>
      </g>
     </g>
    </g>
    <g id="xtick_20">
     <g id="line2d_20">
      <g>
       <use style="stroke:#000000;stroke-width:0.6;" x="265.045875" xlink:href="#ma2786e4ca3" y="307.584"/>
      </g>
     </g>
    </g>
    <g id="xtick_21">
     <g id="line2d_21">
      <g>
       <use style="stroke:#000000;stroke-width:0.6;" x="277.100842" xlink:href="#ma2786e4ca3" y="307.584"/>
      </g>
     </g>
    </g>
    <g id="xtick_22">
     <g id="line2d_22">
      <g>
       <use style="stroke:#000000;stroke-width:0.6;" x="289.155808" xlink:href="#ma2786e4ca3" y="307.584"/>
      </g>
     </g>
    </g>
    <g id="xtick_23">
     <g id="line2d_23">
      <g>
       <use style="stroke:#000000;stroke-width:0.6;" x="301.210774" xlink:href="#ma2786e4ca3" y="307.584"/>
      </g>
     </g>
    </g>
    <g id="xtick_24">
     <g id="line2d_24">
      <g>
       <use style="stroke:#000000;stroke-width:0.6;" x="313.26574" xlink:href="#ma2786e4ca3" y="307.584"/>
      </g>
     </g>
    </g>
    <g id="xtick_25">
     <g id="line2d_25">
      <g>
       <use style="stroke:#000000;stroke-width:0.6;" x="325.320706" xlink:href="#ma2786e4ca3" y="307.584"/>
      </g>
     </g>
     <g id="text_4">
      <!-- 24 -->
      <g transform="translate(318.958206 320.582437)scale(0.1 -0.1)">
       <defs>
        <path d="M 37.796875 64.3125 
L 12.890625 25.390625 
L 37.796875 25.390625 
z
M 35.203125 72.90625 
L 47.609375 72.90625 
L 47.609375 25.390625 
L 58.015625 25.390625 
L 58.015625 17.1875 
L 47.609375 17.1875 
L 47.609375 0 
L 37.796875 0 
L 37.796875 17.1875 
L 4.890625 17.1875 
L 4.890625 26.703125 
z
" id="DejaVuSans-52"/>
       </defs>
       <use xlink:href="#DejaVuSans-50"/>
       <use x="63.623047" xlink:href="#DejaVuSans-52"/>
      </g>
     </g>
    </g>
    <g id="xtick_26">
     <g id="line2d_26">
      <g>
       <use style="stroke:#000000;stroke-width:0.6;" x="337.375672" xlink:href="#ma2786e4ca3" y="307.584"/>
      </g>
     </g>
    </g>
    <g id="xtick_27">
     <g id="line2d_27">
      <g>
       <use style="stroke:#000000;stroke-width:0.6;" x="349.430638" xlink:href="#ma2786e4ca3" y="307.584"/>
      </g>
     </g>
    </g>
    <g id="xtick_28">
     <g id="line2d_28">
      <g>
       <use style="stroke:#000000;stroke-width:0.6;" x="361.485604" xlink:href="#ma2786e4ca3" y="307.584"/>
      </g>
     </g>
    </g>
    <g id="xtick_29">
     <g id="line2d_29">
      <g>
       <use style="stroke:#000000;stroke-width:0.6;" x="373.540571" xlink:href="#ma2786e4ca3" y="307.584"/>
      </g>
     </g>
    </g>
    <g id="xtick_30">
     <g id="line2d_30">
      <g>
       <use style="stroke:#000000;stroke-width:0.6;" x="385.595537" xlink:href="#ma2786e4ca3" y="307.584"/>
      </g>
     </g>
    </g>
    <g id="xtick_31">
     <g id="line2d_31">
      <g>
       <use style="stroke:#000000;stroke-width:0.6;" x="397.650503" xlink:href="#ma2786e4ca3" y="307.584"/>
      </g>
     </g>
    </g>
    <g id="xtick_32">
     <g id="line2d_32">
      <g>
       <use style="stroke:#000000;stroke-width:0.6;" x="409.705469" xlink:href="#ma2786e4ca3" y="307.584"/>
      </g>
     </g>
     <g id="text_5">
      <!-- 31 -->
      <g transform="translate(403.342969 320.582437)scale(0.1 -0.1)">
       <defs>
        <path d="M 40.578125 39.3125 
Q 47.65625 37.796875 51.625 33 
Q 55.609375 28.21875 55.609375 21.1875 
Q 55.609375 10.40625 48.1875 4.484375 
Q 40.765625 -1.421875 27.09375 -1.421875 
Q 22.515625 -1.421875 17.65625 -0.515625 
Q 12.796875 0.390625 7.625 2.203125 
L 7.625 11.71875 
Q 11.71875 9.328125 16.59375 8.109375 
Q 21.484375 6.890625 26.8125 6.890625 
Q 36.078125 6.890625 40.9375 10.546875 
Q 45.796875 14.203125 45.796875 21.1875 
Q 45.796875 27.640625 41.28125 31.265625 
Q 36.765625 34.90625 28.71875 34.90625 
L 20.21875 34.90625 
L 20.21875 43.015625 
L 29.109375 43.015625 
Q 36.375 43.015625 40.234375 45.921875 
Q 44.09375 48.828125 44.09375 54.296875 
Q 44.09375 59.90625 40.109375 62.90625 
Q 36.140625 65.921875 28.71875 65.921875 
Q 24.65625 65.921875 20.015625 65.03125 
Q 15.375 64.15625 9.8125 62.3125 
L 9.8125 71.09375 
Q 15.4375 72.65625 20.34375 73.4375 
Q 25.25 74.21875 29.59375 74.21875 
Q 40.828125 74.21875 47.359375 69.109375 
Q 53.90625 64.015625 53.90625 55.328125 
Q 53.90625 49.265625 50.4375 45.09375 
Q 46.96875 40.921875 40.578125 39.3125 
z
" id="DejaVuSans-51"/>
       </defs>
       <use xlink:href="#DejaVuSans-51"/>
       <use x="63.623047" xlink:href="#DejaVuSans-49"/>
      </g>
     </g>
    </g>
    <g id="text_6">
     <!-- Date -->
     <g transform="translate(224.209219 367.854)scale(0.1 -0.1)">
      <defs>
       <path d="M 19.671875 64.796875 
L 19.671875 8.109375 
L 31.59375 8.109375 
Q 46.6875 8.109375 53.6875 14.9375 
Q 60.6875 21.78125 60.6875 36.53125 
Q 60.6875 51.171875 53.6875 57.984375 
Q 46.6875 64.796875 31.59375 64.796875 
z
M 9.8125 72.90625 
L 30.078125 72.90625 
Q 51.265625 72.90625 61.171875 64.09375 
Q 71.09375 55.28125 71.09375 36.53125 
Q 71.09375 17.671875 61.125 8.828125 
Q 51.171875 0 30.078125 0 
L 9.8125 0 
z
" id="DejaVuSans-68"/>
       <path d="M 18.3125 70.21875 
L 18.3125 54.6875 
L 36.8125 54.6875 
L 36.8125 47.703125 
L 18.3125 47.703125 
L 18.3125 18.015625 
Q 18.3125 11.328125 20.140625 9.421875 
Q 21.96875 7.515625 27.59375 7.515625 
L 36.8125 7.515625 
L 36.8125 0 
L 27.59375 0 
Q 17.1875 0 13.234375 3.875 
Q 9.28125 7.765625 9.28125 18.015625 
L 9.28125 47.703125 
L 2.6875 47.703125 
L 2.6875 54.6875 
L 9.28125 54.6875 
L 9.28125 70.21875 
z
" id="DejaVuSans-116"/>
       <path d="M 56.203125 29.59375 
L 56.203125 25.203125 
L 14.890625 25.203125 
Q 15.484375 15.921875 20.484375 11.0625 
Q 25.484375 6.203125 34.421875 6.203125 
Q 39.59375 6.203125 44.453125 7.46875 
Q 49.3125 8.734375 54.109375 11.28125 
L 54.109375 2.78125 
Q 49.265625 0.734375 44.1875 -0.34375 
Q 39.109375 -1.421875 33.890625 -1.421875 
Q 20.796875 -1.421875 13.15625 6.1875 
Q 5.515625 13.8125 5.515625 26.8125 
Q 5.515625 40.234375 12.765625 48.109375 
Q 20.015625 56 32.328125 56 
Q 43.359375 56 49.78125 48.890625 
Q 56.203125 41.796875 56.203125 29.59375 
z
M 47.21875 32.234375 
Q 47.125 39.59375 43.09375 43.984375 
Q 39.0625 48.390625 32.421875 48.390625 
Q 24.90625 48.390625 20.390625 44.140625 
Q 15.875 39.890625 15.1875 32.171875 
z
" id="DejaVuSans-101"/>
      </defs>
      <use xlink:href="#DejaVuSans-68"/>
      <use x="77.001953" xlink:href="#DejaVuSans-97"/>
      <use x="138.28125" xlink:href="#DejaVuSans-116"/>
      <use x="177.490234" xlink:href="#DejaVuSans-101"/>
     </g>
    </g>
   </g>
   <g id="matplotlib.axis_2">
    <g id="ytick_1">
     <g id="line2d_33">
      <defs>
       <path d="M 0 0 
L -3.5 0 
" id="mf28b78c988" style="stroke:#000000;stroke-width:0.8;"/>
      </defs>
      <g>
       <use style="stroke:#000000;stroke-width:0.8;" x="57.6" xlink:href="#mf28b78c988" y="295.488"/>
      </g>
     </g>
     <g id="text_7">
      <!-- 0 -->
      <g transform="translate(44.2375 299.287219)scale(0.1 -0.1)">
       <use xlink:href="#DejaVuSans-48"/>
      </g>
     </g>
    </g>
    <g id="ytick_2">
     <g id="line2d_34">
      <g>
       <use style="stroke:#000000;stroke-width:0.8;" x="57.6" xlink:href="#mf28b78c988" y="249.842717"/>
      </g>
     </g>
     <g id="text_8">
      <!-- 50 -->
      <g transform="translate(37.875 253.641936)scale(0.1 -0.1)">
       <defs>
        <path d="M 10.796875 72.90625 
L 49.515625 72.90625 
L 49.515625 64.59375 
L 19.828125 64.59375 
L 19.828125 46.734375 
Q 21.96875 47.46875 24.109375 47.828125 
Q 26.265625 48.1875 28.421875 48.1875 
Q 40.625 48.1875 47.75 41.5 
Q 54.890625 34.8125 54.890625 23.390625 
Q 54.890625 11.625 47.5625 5.09375 
Q 40.234375 -1.421875 26.90625 -1.421875 
Q 22.3125 -1.421875 17.546875 -0.640625 
Q 12.796875 0.140625 7.71875 1.703125 
L 7.71875 11.625 
Q 12.109375 9.234375 16.796875 8.0625 
Q 21.484375 6.890625 26.703125 6.890625 
Q 35.15625 6.890625 40.078125 11.328125 
Q 45.015625 15.765625 45.015625 23.390625 
Q 45.015625 31 40.078125 35.4375 
Q 35.15625 39.890625 26.703125 39.890625 
Q 22.75 39.890625 18.8125 39.015625 
Q 14.890625 38.140625 10.796875 36.28125 
z
" id="DejaVuSans-53"/>
       </defs>
       <use xlink:href="#DejaVuSans-53"/>
       <use x="63.623047" xlink:href="#DejaVuSans-48"/>
      </g>
     </g>
    </g>
    <g id="ytick_3">
     <g id="line2d_35">
      <g>
       <use style="stroke:#000000;stroke-width:0.8;" x="57.6" xlink:href="#mf28b78c988" y="204.197434"/>
      </g>
     </g>
     <g id="text_9">
      <!-- 100 -->
      <g transform="translate(31.5125 207.996653)scale(0.1 -0.1)">
       <use xlink:href="#DejaVuSans-49"/>
       <use x="63.623047" xlink:href="#DejaVuSans-48"/>
       <use x="127.246094" xlink:href="#DejaVuSans-48"/>
      </g>
     </g>
    </g>
    <g id="ytick_4">
     <g id="line2d_36">
      <g>
       <use style="stroke:#000000;stroke-width:0.8;" x="57.6" xlink:href="#mf28b78c988" y="158.552151"/>
      </g>
     </g>
     <g id="text_10">
      <!-- 150 -->
      <g transform="translate(31.5125 162.35137)scale(0.1 -0.1)">
       <use xlink:href="#DejaVuSans-49"/>
       <use x="63.623047" xlink:href="#DejaVuSans-53"/>
       <use x="127.246094" xlink:href="#DejaVuSans-48"/>
      </g>
     </g>
    </g>
    <g id="ytick_5">
     <g id="line2d_37">
      <g>
       <use style="stroke:#000000;stroke-width:0.8;" x="57.6" xlink:href="#mf28b78c988" y="112.906868"/>
      </g>
     </g>
     <g id="text_11">
      <!-- 200 -->
      <g transform="translate(31.5125 116.706087)scale(0.1 -0.1)">
       <use xlink:href="#DejaVuSans-50"/>
       <use x="63.623047" xlink:href="#DejaVuSans-48"/>
       <use x="127.246094" xlink:href="#DejaVuSans-48"/>
      </g>
     </g>
    </g>
    <g id="ytick_6">
     <g id="line2d_38">
      <g>
       <use style="stroke:#000000;stroke-width:0.8;" x="57.6" xlink:href="#mf28b78c988" y="67.261585"/>
      </g>
     </g>
     <g id="text_12">
      <!-- 250 -->
      <g transform="translate(31.5125 71.060804)scale(0.1 -0.1)">
       <use xlink:href="#DejaVuSans-50"/>
       <use x="63.623047" xlink:href="#DejaVuSans-53"/>
       <use x="127.246094" xlink:href="#DejaVuSans-48"/>
      </g>
     </g>
    </g>
   </g>
   <g id="line2d_39">
    <path clip-path="url(#pe71f6b3cea)" d="M 57.6 278.142792 
L 57.616743 175.897358 
L 57.717201 295.488 
L 80.169575 295.488 
L 80.253291 240.71366 
L 80.278405 295.488 
L 80.713723 295.488 
L 80.722095 276.316981 
L 80.822553 295.488 
L 81.927591 295.488 
L 81.935963 249.842717 
L 82.036421 295.488 
L 82.103393 295.488 
L 82.136879 199.632906 
L 82.212223 295.488 
L 90.307467 295.488 
L 90.315839 258.971774 
L 90.416297 295.488 
L 90.449783 295.488 
L 90.458154 266.275019 
L 90.558612 295.488 
L 90.717671 295.488 
L 90.793014 256.233057 
L 90.8265 288.184755 
L 90.876729 295.488 
L 90.885101 262.623396 
L 90.893472 199.632906 
L 90.901844 295.488 
L 90.985559 295.488 
L 91.261819 295.488 
L 91.312048 252.581434 
L 91.370648 295.488 
L 92.852404 295.488 
L 92.860776 290.010566 
L 92.961234 295.488 
L 92.99472 295.488 
L 93.003091 290.010566 
L 93.10355 295.488 
L 95.129454 295.488 
L 95.137825 251.668528 
L 95.238283 295.488 
L 101.650855 295.488 
L 101.659227 290.010566 
L 101.759685 295.488 
L 102.035945 295.488 
L 102.044316 289.09766 
L 102.144774 295.488 
L 102.873095 295.488 
L 102.881467 262.623396 
L 102.981925 295.488 
L 103.12424 295.488 
L 103.132612 272.665358 
L 103.23307 295.488 
L 103.425614 295.488 
L 103.517701 214.239396 
L 103.534444 295.488 
L 103.810703 295.488 
L 103.819075 291.836377 
L 103.919533 295.488 
L 104.053477 295.488 
L 104.061849 279.055698 
L 104.162307 295.488 
L 119.105442 295.488 
L 119.113813 286.358943 
L 119.214271 295.488 
L 119.272872 295.488 
L 119.348215 185.939321 
L 119.381701 295.488 
L 126.723511 295.488 
L 126.756997 246.191094 
L 126.83234 295.488 
L 126.882569 295.488 
L 126.966284 279.055698 
L 126.991399 295.488 
L 128.205267 295.488 
L 128.322468 212.413585 
L 128.439669 295.488 
L 130.641375 295.488 
L 130.658118 208.761962 
L 130.750204 295.488 
L 130.78369 295.488 
L 130.792062 291.836377 
L 130.800433 153.074717 
L 130.900891 295.488 
L 130.926006 295.488 
L 130.934377 269.926642 
L 131.034835 295.488 
L 138.267815 295.488 
L 138.276187 293.662189 
L 138.284558 266.275019 
L 138.29293 295.488 
L 138.385016 295.488 
L 138.451988 295.488 
L 138.46036 250.755623 
L 138.560818 295.488 
L 138.736619 295.488 
L 138.744991 255.320151 
L 138.845449 295.488 
L 139.280767 295.488 
L 139.289139 284.533132 
L 139.389597 295.488 
L 140.009088 295.488 
L 140.017459 291.836377 
L 140.117917 295.488 
L 165.190573 295.488 
L 165.198944 177.72317 
L 165.299402 295.488 
L 165.433346 295.488 
L 165.441718 256.233057 
L 165.542176 295.488 
L 166.931846 295.488 
L 166.940217 293.662189 
L 167.040675 295.488 
L 168.271286 295.488 
L 168.279658 281.794415 
L 168.380116 295.488 
L 174.834546 295.488 
L 174.842917 239.800755 
L 174.943375 248.929811 
L 175.010347 230.671698 
L 175.052205 295.488 
L 175.060576 248.929811 
L 175.161034 295.488 
L 175.286607 295.488 
L 175.311721 177.72317 
L 175.395436 295.488 
L 176.299559 295.488 
L 176.30793 212.413585 
L 176.408388 295.488 
L 176.793478 295.488 
L 176.801849 271.752453 
L 176.902307 295.488 
L 178.132918 295.488 
L 178.14129 271.752453 
L 178.241748 295.488 
L 180.803428 295.488 
L 180.820171 227.932981 
L 180.912258 295.488 
L 186.671853 295.488 
L 186.680224 287.271849 
L 186.780682 295.488 
L 189.04936 295.488 
L 189.057731 287.271849 
L 189.158189 295.488 
L 190.313457 295.488 
L 190.346943 210.587774 
L 190.422287 295.488 
L 191.133864 295.488 
L 191.16735 81.868075 
L 191.242694 295.488 
L 191.267808 295.488 
L 191.284551 259.884679 
L 191.376638 295.488 
L 191.44361 295.488 
L 191.485468 204.197434 
L 191.55244 295.488 
L 191.636155 295.488 
L 191.644526 231.584604 
L 191.744984 295.488 
L 193.193254 295.488 
L 193.201626 278.142792 
L 193.302084 295.488 
L 198.802162 295.488 
L 198.810534 258.971774 
L 198.910992 295.488 
L 199.111908 295.488 
L 199.128651 187.765132 
L 199.220737 295.488 
L 199.873715 295.488 
L 199.882086 174.984453 
L 199.982544 295.488 
L 200.267176 295.488 
L 200.283919 288.184755 
L 200.376005 295.488 
L 200.652265 295.488 
L 200.660636 258.971774 
L 200.761094 295.488 
L 204.101324 295.488 
L 204.109696 250.755623 
L 204.210154 295.488 
L 204.385956 295.488 
L 204.394327 286.358943 
L 204.494785 295.488 
L 204.536643 295.488 
L 204.561757 188.678038 
L 204.645472 295.488 
L 213.770412 295.488 
L 213.778783 294.575094 
L 213.803898 250.755623 
L 213.812269 295.488 
L 213.887613 295.488 
L 214.456875 295.488 
L 214.465247 242.539472 
L 214.565705 295.488 
L 214.624305 295.488 
L 214.632677 232.497509 
L 214.733135 295.488 
L 215.972117 295.488 
L 215.980489 285.446038 
L 216.080947 295.488 
L 216.248377 295.488 
L 216.256749 280.881509 
L 216.357207 295.488 
L 223.632044 295.488 
L 223.640415 288.184755 
L 223.740873 295.488 
L 224.100848 295.488 
L 224.10922 277.229887 
L 224.209678 295.488 
L 227.524793 295.488 
L 227.533165 257.145962 
L 227.633623 295.488 
L 234.355941 295.488 
L 234.372684 217.891019 
L 234.46477 295.488 
L 236.172557 295.488 
L 236.214415 206.936151 
L 236.281387 295.488 
L 236.607875 295.488 
L 236.616247 276.316981 
L 236.716705 295.488 
L 236.74182 295.488 
L 236.750191 275.404075 
L 236.850649 295.488 
L 239.546273 295.488 
L 239.554645 255.320151 
L 239.655103 295.488 
L 249.60045 295.488 
L 249.608822 290.010566 
L 249.70928 295.488 
L 264.476613 295.488 
L 264.484985 203.284528 
L 264.585443 295.488 
L 264.844959 295.488 
L 264.978903 213.326491 
L 265.096104 295.488 
L 269.323714 295.488 
L 269.332086 261.710491 
L 269.432544 295.488 
L 270.194351 295.488 
L 270.202722 241.626566 
L 270.30318 295.488 
L 270.57944 295.488 
L 270.587811 183.200604 
L 270.688269 295.488 
L 271.207303 295.488 
L 271.265903 240.71366 
L 271.316132 295.488 
L 271.341247 295.488 
L 271.349618 185.939321 
L 271.450076 295.488 
L 272.245369 295.488 
L 272.253741 267.187925 
L 272.354199 295.488 
L 272.404428 295.488 
L 272.412799 277.229887 
L 272.513257 295.488 
L 278.925829 295.488 
L 278.934201 277.229887 
L 279.034659 295.488 
L 280.851275 295.488 
L 280.859647 53.568 
L 280.960105 295.488 
L 281.964686 295.488 
L 281.9898 215.152302 
L 282.073515 295.488 
L 282.115373 295.488 
L 282.132116 140.294038 
L 282.224202 291.836377 
L 282.291174 295.488 
L 282.299546 294.575094 
L 282.307917 241.626566 
L 282.316289 295.488 
L 282.408375 295.488 
L 283.069724 295.488 
L 283.094839 207.849057 
L 283.178554 295.488 
L 295.166548 295.488 
L 295.183291 212.413585 
L 295.275377 295.488 
L 296.865963 295.488 
L 296.882706 255.320151 
L 296.974793 295.488 
L 298.958839 295.488 
L 298.967211 265.362113 
L 299.067669 295.488 
L 299.168127 295.488 
L 299.176498 270.839547 
L 299.276956 274.49117 
L 299.402529 295.488 
L 303.91477 295.488 
L 303.923141 279.055698 
L 304.023599 295.488 
L 305.438383 295.488 
L 305.446755 244.365283 
L 305.547213 263.536302 
L 305.689529 295.488 
L 305.823473 295.488 
L 305.831844 224.281358 
L 305.932302 295.488 
L 306.074618 295.488 
L 306.082989 243.452377 
L 306.183447 295.488 
L 306.535051 295.488 
L 306.543422 257.145962 
L 306.64388 295.488 
L 306.685738 295.488 
L 306.694109 216.978113 
L 306.794567 295.488 
L 307.054084 295.488 
L 307.095941 222.455547 
L 307.162913 295.488 
L 309.004644 295.488 
L 309.130217 238.887849 
L 309.247418 295.488 
L 310.838004 295.488 
L 310.854747 218.803925 
L 310.946833 295.488 
L 316.27111 295.488 
L 316.279481 276.316981 
L 316.37994 295.488 
L 317.861696 295.488 
L 317.878439 213.326491 
L 317.970525 295.488 
L 318.539788 295.488 
L 318.598388 236.149132 
L 318.648617 295.488 
L 319.008592 295.488 
L 319.025335 192.32966 
L 319.117421 295.488 
L 321.193554 295.488 
L 321.235412 272.665358 
L 321.302384 295.488 
L 322.72554 295.488 
L 322.733911 273.578264 
L 322.834369 295.488 
L 327.899129 295.488 
L 327.907501 274.49117 
L 328.007959 295.488 
L 330.79567 295.488 
L 330.820784 223.368453 
L 330.904499 295.488 
L 331.490505 295.488 
L 331.532362 249.842717 
L 331.599334 295.488 
L 341.385623 295.488 
L 341.393994 290.923472 
L 341.494452 295.488 
L 342.080458 295.488 
L 342.197659 216.065208 
L 342.264631 195.981283 
L 342.31486 295.488 
L 346.090408 295.488 
L 346.09878 260.797585 
L 346.199238 295.488 
L 346.93593 295.488 
L 346.944302 251.668528 
L 347.04476 295.488 
L 347.061503 295.488 
L 347.069874 258.058868 
L 347.170332 295.488 
L 352.528095 295.488 
L 352.536466 285.446038 
L 352.636924 295.488 
L 353.758706 295.488 
L 353.767078 212.413585 
L 353.867536 295.488 
L 356.931506 295.488 
L 356.973364 221.542642 
L 357.040336 283.620226 
L 357.157537 295.488 
L 357.818886 295.488 
L 357.827257 258.058868 
L 357.927715 295.488 
L 358.337919 295.488 
L 358.34629 269.013736 
L 358.446748 295.488 
L 367.487973 295.488 
L 367.504716 289.09766 
L 367.596803 295.488 
L 367.697261 295.488 
L 367.714004 240.71366 
L 367.80609 295.488 
L 376.093879 295.488 
L 376.102251 278.142792 
L 376.202709 295.488 
L 390.166378 295.488 
L 390.17475 260.797585 
L 390.275208 295.488 
L 395.524141 295.488 
L 395.616227 219.71683 
L 395.649713 281.794415 
L 395.766914 295.488 
L 402.146001 295.488 
L 402.154372 290.010566 
L 402.25483 295.488 
L 411.949032 295.488 
L 411.957404 185.939321 
L 412.057862 295.488 
L 412.309007 295.488 
L 412.317378 193.242566 
L 412.417836 295.488 
L 414.468855 295.488 
L 414.502341 247.104 
L 414.577684 295.488 
L 414.711628 295.488 
L 414.72 291.836377 
L 414.72 291.836377 
" style="fill:none;stroke:#1f77b4;stroke-linecap:square;stroke-width:1.5;"/>
   </g>
   <g id="patch_3">
    <path d="M 57.6 307.584 
L 57.6 41.472 
" style="fill:none;stroke:#000000;stroke-linecap:square;stroke-linejoin:miter;stroke-width:0.8;"/>
   </g>
   <g id="patch_4">
    <path d="M 414.72 307.584 
L 414.72 41.472 
" style="fill:none;stroke:#000000;stroke-linecap:square;stroke-linejoin:miter;stroke-width:0.8;"/>
   </g>
   <g id="patch_5">
    <path d="M 57.6 307.584 
L 414.72 307.584 
" style="fill:none;stroke:#000000;stroke-linecap:square;stroke-linejoin:miter;stroke-width:0.8;"/>
   </g>
   <g id="patch_6">
    <path d="M 57.6 41.472 
L 414.72 41.472 
" style="fill:none;stroke:#000000;stroke-linecap:square;stroke-linejoin:miter;stroke-width:0.8;"/>
   </g>
   <g id="legend_1">
    <g id="patch_7">
     <path d="M 321.140313 64.150125 
L 407.72 64.150125 
Q 409.72 64.150125 409.72 62.150125 
L 409.72 48.472 
Q 409.72 46.472 407.72 46.472 
L 321.140313 46.472 
Q 319.140313 46.472 319.140313 48.472 
L 319.140313 62.150125 
Q 319.140313 64.150125 321.140313 64.150125 
z
" style="fill:#ffffff;opacity:0.8;stroke:#cccccc;stroke-linejoin:miter;"/>
    </g>
    <g id="line2d_40">
     <path d="M 323.140313 54.570438 
L 343.140313 54.570438 
" style="fill:none;stroke:#1f77b4;stroke-linecap:square;stroke-width:1.5;"/>
    </g>
    <g id="line2d_41"/>
    <g id="text_13">
     <!-- Characters -->
     <g transform="translate(351.140313 58.070438)scale(0.1 -0.1)">
      <defs>
       <path d="M 64.40625 67.28125 
L 64.40625 56.890625 
Q 59.421875 61.53125 53.78125 63.8125 
Q 48.140625 66.109375 41.796875 66.109375 
Q 29.296875 66.109375 22.65625 58.46875 
Q 16.015625 50.828125 16.015625 36.375 
Q 16.015625 21.96875 22.65625 14.328125 
Q 29.296875 6.6875 41.796875 6.6875 
Q 48.140625 6.6875 53.78125 8.984375 
Q 59.421875 11.28125 64.40625 15.921875 
L 64.40625 5.609375 
Q 59.234375 2.09375 53.4375 0.328125 
Q 47.65625 -1.421875 41.21875 -1.421875 
Q 24.65625 -1.421875 15.125 8.703125 
Q 5.609375 18.84375 5.609375 36.375 
Q 5.609375 53.953125 15.125 64.078125 
Q 24.65625 74.21875 41.21875 74.21875 
Q 47.75 74.21875 53.53125 72.484375 
Q 59.328125 70.75 64.40625 67.28125 
z
" id="DejaVuSans-67"/>
       <path d="M 54.890625 33.015625 
L 54.890625 0 
L 45.90625 0 
L 45.90625 32.71875 
Q 45.90625 40.484375 42.875 44.328125 
Q 39.84375 48.1875 33.796875 48.1875 
Q 26.515625 48.1875 22.3125 43.546875 
Q 18.109375 38.921875 18.109375 30.90625 
L 18.109375 0 
L 9.078125 0 
L 9.078125 75.984375 
L 18.109375 75.984375 
L 18.109375 46.1875 
Q 21.34375 51.125 25.703125 53.5625 
Q 30.078125 56 35.796875 56 
Q 45.21875 56 50.046875 50.171875 
Q 54.890625 44.34375 54.890625 33.015625 
z
" id="DejaVuSans-104"/>
       <path d="M 41.109375 46.296875 
Q 39.59375 47.171875 37.8125 47.578125 
Q 36.03125 48 33.890625 48 
Q 26.265625 48 22.1875 43.046875 
Q 18.109375 38.09375 18.109375 28.8125 
L 18.109375 0 
L 9.078125 0 
L 9.078125 54.6875 
L 18.109375 54.6875 
L 18.109375 46.1875 
Q 20.953125 51.171875 25.484375 53.578125 
Q 30.03125 56 36.53125 56 
Q 37.453125 56 38.578125 55.875 
Q 39.703125 55.765625 41.0625 55.515625 
z
" id="DejaVuSans-114"/>
       <path d="M 48.78125 52.59375 
L 48.78125 44.1875 
Q 44.96875 46.296875 41.140625 47.34375 
Q 37.3125 48.390625 33.40625 48.390625 
Q 24.65625 48.390625 19.8125 42.84375 
Q 14.984375 37.3125 14.984375 27.296875 
Q 14.984375 17.28125 19.8125 11.734375 
Q 24.65625 6.203125 33.40625 6.203125 
Q 37.3125 6.203125 41.140625 7.25 
Q 44.96875 8.296875 48.78125 10.40625 
L 48.78125 2.09375 
Q 45.015625 0.34375 40.984375 -0.53125 
Q 36.96875 -1.421875 32.421875 -1.421875 
Q 20.0625 -1.421875 12.78125 6.34375 
Q 5.515625 14.109375 5.515625 27.296875 
Q 5.515625 40.671875 12.859375 48.328125 
Q 20.21875 56 33.015625 56 
Q 37.15625 56 41.109375 55.140625 
Q 45.0625 54.296875 48.78125 52.59375 
z
" id="DejaVuSans-99"/>
       <path d="M 44.28125 53.078125 
L 44.28125 44.578125 
Q 40.484375 46.53125 36.375 47.5 
Q 32.28125 48.484375 27.875 48.484375 
Q 21.1875 48.484375 17.84375 46.4375 
Q 14.5 44.390625 14.5 40.28125 
Q 14.5 37.15625 16.890625 35.375 
Q 19.28125 33.59375 26.515625 31.984375 
L 29.59375 31.296875 
Q 39.15625 29.25 43.1875 25.515625 
Q 47.21875 21.78125 47.21875 15.09375 
Q 47.21875 7.46875 41.1875 3.015625 
Q 35.15625 -1.421875 24.609375 -1.421875 
Q 20.21875 -1.421875 15.453125 -0.5625 
Q 10.6875 0.296875 5.421875 2 
L 5.421875 11.28125 
Q 10.40625 8.6875 15.234375 7.390625 
Q 20.0625 6.109375 24.8125 6.109375 
Q 31.15625 6.109375 34.5625 8.28125 
Q 37.984375 10.453125 37.984375 14.40625 
Q 37.984375 18.0625 35.515625 20.015625 
Q 33.0625 21.96875 24.703125 23.78125 
L 21.578125 24.515625 
Q 13.234375 26.265625 9.515625 29.90625 
Q 5.8125 33.546875 5.8125 39.890625 
Q 5.8125 47.609375 11.28125 51.796875 
Q 16.75 56 26.8125 56 
Q 31.78125 56 36.171875 55.265625 
Q 40.578125 54.546875 44.28125 53.078125 
z
" id="DejaVuSans-115"/>
      </defs>
      <use xlink:href="#DejaVuSans-67"/>
      <use x="69.824219" xlink:href="#DejaVuSans-104"/>
      <use x="133.203125" xlink:href="#DejaVuSans-97"/>
      <use x="194.482422" xlink:href="#DejaVuSans-114"/>
      <use x="235.595703" xlink:href="#DejaVuSans-97"/>
      <use x="296.875" xlink:href="#DejaVuSans-99"/>
      <use x="351.855469" xlink:href="#DejaVuSans-116"/>
      <use x="391.064453" xlink:href="#DejaVuSans-101"/>
      <use x="452.587891" xlink:href="#DejaVuSans-114"/>
      <use x="493.701172" xlink:href="#DejaVuSans-115"/>
     </g>
    </g>
   </g>
  </g>
 </g>
 <defs>
  <clipPath id="pe71f6b3cea">
   <rect height="266.112" width="357.12" x="57.6" y="41.472"/>
  </clipPath>
 </defs>
</svg>
